<?xml version="1.0" ?><svg width="32px" height="32px" viewBox="0 0 32 32" xmlns="http://www.w3.org/2000/svg"><g data-name="19. Search" id="_19._Search"><path d="M31.09,26.67l-7-7a13,13,0,1,0-4.42,4.42l7,7A3.13,3.13,0,0,0,32,28.88,3.09,3.09,0,0,0,31.09,26.67ZM2,13A11,11,0,1,1,13,24,11,11,0,0,1,2,13ZM28.88,30a1.1,1.1,0,0,1-.79-.33l-6.73-6.73a13.1,13.1,0,0,0,1.58-1.58l6.73,6.73A1.12,1.12,0,0,1,28.88,30Z"/><path d="M13,10h2a1,1,0,0,0,0-2H14a1,1,0,0,0-2,0v.18A3,3,0,0,0,13,14a1,1,0,0,1,0,2H11a1,1,0,0,0,0,2h1a1,1,0,0,0,2,0v-.18A3,3,0,0,0,13,12a1,1,0,0,1,0-2Z"/></g></svg>