<?xml version="1.0" ?><svg width="32px" height="32px" viewBox="0 0 32 32" xmlns="http://www.w3.org/2000/svg"><g data-name="23. Bomb" id="_23._Bomb"><path d="M20.24,8.78A.39.39,0,0,1,20,8.41,2.41,2.41,0,0,0,17.59,6h-.41A3,3,0,0,1,20,4h1.18a3,3,0,1,0,0-2H20a5,5,0,0,0-4.9,4h-.69A2.41,2.41,0,0,0,12,8.41a.41.41,0,0,1-.24.38,12,12,0,0,0,2.91,23.14A12.21,12.21,0,0,0,16,32a11.83,11.83,0,0,0,8-3.07A12,12,0,0,0,20.24,8.78ZM24,2a1,1,0,1,1-1,1A1,1,0,0,1,24,2ZM22.68,27.44A10,10,0,1,1,12.46,10.66,2.41,2.41,0,0,0,14,8.41.42.42,0,0,1,14.41,8h3.18a.42.42,0,0,1,.41.41,2.42,2.42,0,0,0,1.53,2.25,10,10,0,0,1,3.15,16.78Z"/><path d="M16,17h2a1,1,0,0,0,0-2H17a1,1,0,0,0-2,0v.18A3,3,0,0,0,16,21a1,1,0,0,1,0,2H14a1,1,0,0,0,0,2h1a1,1,0,0,0,2,0v-.18A3,3,0,0,0,16,19a1,1,0,0,1,0-2Z"/></g></svg>